<svg width="159" height="341" viewBox="0 0 159 341" fill="none" xmlns="http://www.w3.org/2000/svg">
<path fill-rule="evenodd" clip-rule="evenodd" d="M69.6666 0.62797C63.4376 1.75197 59.3216 4.03097 53.3216 9.67797C48.4576 14.256 47.9756 14.464 40.7636 15.116C27.3766 16.326 21.9286 17.761 15.8876 21.666C9.37461 25.875 4.49562 32.464 2.22262 40.119C0.131621 47.159 -0.699382 69.102 0.672618 81.072C2.52062 97.204 7.90063 106.148 19.0616 111.642C25.9796 115.048 33.7896 116.248 56.9716 117.468L70.2636 118.167L69.9396 123.167C69.6596 127.491 65.7116 147.816 64.1606 152.917C61.9966 160.035 71.3136 146.217 82.7016 125.417L86.9446 117.667L97.1036 117.622C114.53 117.546 130.78 115.383 137.078 112.302C147.797 107.058 153.828 97.371 155.842 82.167C157.399 70.406 156.497 46.009 154.251 39.146C152.027 32.35 146.985 25.664 141.186 21.823C135.615 18.133 132.313 17.135 121.089 15.751C112.996 14.752 112.866 14.69 108.114 9.60997C100.773 1.76197 97.2316 0.308969 84.7636 0.0319695C78.9886 -0.0960305 72.1946 0.17197 69.6666 0.62797ZM67.2626 3.05497C50.8496 8.19897 39.7046 28.055 41.0996 49.667C41.9986 63.608 46.8026 74.761 55.2676 82.564C71.6896 97.701 94.0966 91.656 104.317 69.331C108.116 61.034 110.056 50.437 109.274 42.263C107.922 28.149 103.3 18.099 94.4316 9.99497C86.2246 2.49297 76.7636 0.0769703 67.2626 3.05497ZM68.9496 17.695C66.6976 19.068 64.7036 21.71 62.7276 25.941C55.4606 41.495 57.5836 64.285 67.1646 73.571C74.4576 80.64 81.8406 77.995 87.7636 66.193C91.1826 59.38 91.2636 58.942 91.2636 47.193C91.2636 34.137 90.2546 29.366 86.1546 23.043C81.4176 15.737 75.2866 13.832 68.9496 17.695ZM31.4796 17.757C23.9196 18.863 18.0026 21.553 12.8136 26.241C3.73662 34.441 1.22963 44.761 2.02063 70.667C2.60763 89.898 4.31662 96.057 11.1086 103.425C18.9496 111.932 24.9636 113.689 53.0766 115.684C65.9716 116.6 69.1846 116.563 70.4876 115.487C71.9386 114.288 72.0256 114.995 71.4316 123.167C71.0726 128.117 69.9356 135.644 68.9046 139.893C67.8746 144.143 67.3866 147.4 67.8206 147.132C68.6556 146.616 79.9916 127.122 83.6536 119.905C85.5156 116.236 86.1536 115.727 88.2346 116.249C91.2326 117.001 121.456 114.905 128.264 113.473C139.612 111.085 148.525 103.238 152.136 92.455C155.88 81.278 155.942 49.741 152.243 38.605C150.13 32.243 143.035 24.432 136.467 21.237C133.605 19.845 128.114 18.256 124.264 17.706C113.292 16.139 113.708 15.94 116.366 21.494C119.692 28.444 120.712 33.884 120.74 44.828C120.789 64.44 112.267 79.272 96.2636 87.422C77.3476 97.055 58.8426 93.039 48.1896 76.99C43.2736 69.584 41.1436 63.744 39.8136 54.03C38.1456 41.85 39.7536 33.072 46.4276 17.917C47.0676 16.463 40.7856 16.395 31.4796 17.757ZM77.9266 20.994C71.7616 27.555 69.3766 46.937 73.2606 58.907C75.2166 64.937 79.9646 71.667 82.2626 71.667C84.3896 71.667 88.5866 61.886 89.8806 53.917C91.7876 42.162 88.1726 26.218 82.3626 20.76L80.1226 18.656L77.9266 20.994ZM42.4996 161.755C25.5646 164.234 7.21962 176.756 3.31962 188.499C0.559621 196.807 -0.0633795 215.151 0.820621 262.038C1.86862 317.567 2.42262 327.049 4.74662 329.152C7.95762 332.057 38.0706 336.713 66.2636 338.662C74.5136 339.233 91.3886 339.805 103.764 339.933L126.264 340.167L133.981 336.205C143.843 331.142 151.561 325.824 154.193 322.278C156.158 319.632 156.255 318.325 156.093 296.838C155.99 283.165 156.305 273.951 156.888 273.591C157.419 273.262 158.129 269.704 158.466 265.682C158.974 259.62 158.802 258.168 157.46 257.187C156.085 256.181 155.752 252.642 155.247 233.679C154.787 216.426 154.935 211.18 155.896 210.585C156.684 210.099 157.3 206.481 157.575 200.742C157.992 192.023 157.925 191.667 155.886 191.667C153.873 191.667 153.764 191.181 153.764 182.238C153.764 175.299 153.378 172.424 152.302 171.348C149.2 168.246 116.796 164.139 80.1256 162.2C64.2516 161.36 50.5886 160.727 49.7636 160.792C48.9386 160.857 45.6696 161.291 42.4996 161.755ZM37.9336 164.342C29.8426 166.258 30.4156 166.9 39.0216 165.56C55.4516 163.002 142.136 170.411 147.458 174.828C148.195 175.44 148.802 179.111 148.975 184.007C149.204 190.465 149.577 192.167 150.764 192.167C152.016 192.167 152.208 190.596 151.923 182.667C151.694 176.272 151.145 172.821 150.243 172.108C148.723 170.906 125.259 167.128 110.264 165.672C97.9506 164.476 60.7706 162.639 51.2636 162.757C47.4136 162.804 41.4156 163.518 37.9336 164.342ZM32.9176 168.161C29.9766 168.994 25.7686 170.461 23.5656 171.421L19.5596 173.167L28.8346 172.811C39.4646 172.403 82.0776 174.246 95.3436 175.687C115.549 177.883 132.025 180.928 133.912 182.815C135.492 184.395 135.767 186.318 135.784 195.917C135.796 202.105 136.448 234.206 137.234 267.253C138.02 300.3 138.408 328.312 138.097 329.503C137.371 332.279 138.134 332.226 143.408 329.136C148.435 326.189 149.319 324.821 150.264 318.516C151.327 311.424 150.409 309.667 145.636 309.667H141.643L142.321 316.546C142.751 320.915 142.602 324.108 141.912 325.296C141.115 326.668 140.874 319.029 141.009 296.667C141.111 279.892 141.337 271.503 141.512 278.025C141.825 289.717 141.86 289.875 144.047 289.289C145.266 288.962 147.052 288.688 148.014 288.681C149.511 288.669 149.764 287.665 149.764 281.726C149.764 274.901 148.455 271.967 146.668 274.789C146.133 275.632 145.789 272.577 145.779 266.917C145.767 259.355 146.038 257.667 147.264 257.667C148.375 257.667 148.764 256.5 148.764 253.167V248.667H144.764H140.764V240.667V232.667H144.295C146.362 232.667 148.045 232.099 148.352 231.298C149.233 229.003 147.348 210.147 146.264 210.407C145.714 210.538 145.012 214.588 144.703 219.407C144.369 224.616 144.136 219.249 144.128 206.167C144.12 194.067 144.287 186.108 144.499 188.48C144.746 191.238 145.314 192.652 146.075 192.402C147.434 191.955 148.185 183.726 147.298 178.996C146.599 175.271 145.683 174.996 123.191 171.761C104.865 169.126 87.1186 167.834 60.2636 167.182C42.4186 166.749 37.2536 166.934 32.9176 168.161ZM28.4126 189.417C27.1426 219.697 25.6756 313.251 26.3206 322.86C27.0796 334.176 25.0526 332.84 44.9456 335.132C64.0146 337.33 95.5216 338.903 112.324 338.496C129.244 338.086 132.684 337 135.452 331.194C136.937 328.082 136.936 322.079 135.439 256.064C134.545 216.602 133.464 183.972 133.038 183.552C132.133 182.66 112.444 179.283 98.7636 177.673C90.2416 176.67 41.6846 173.743 32.6686 173.689L29.0736 173.667L28.4126 189.417ZM17.5226 176.09C11.2816 178.317 8.68462 180.596 6.22662 186.002C2.01362 195.267 1.41162 205.211 2.19362 252.667C3.08562 306.771 3.92262 326.226 5.42262 327.726C6.05162 328.355 9.64862 329.497 13.4146 330.265C17.1816 331.032 21.2036 331.876 22.3516 332.141L24.4396 332.624L25.0976 277.395C25.4596 247.02 26.0536 211.48 26.4176 198.417L27.0806 174.667L24.1726 174.711C22.5726 174.735 19.5806 175.356 17.5226 176.09ZM118.033 175.36C119.006 175.614 120.356 175.597 121.033 175.323C121.71 175.049 120.914 174.842 119.264 174.862C117.614 174.882 117.06 175.106 118.033 175.36ZM126.764 176.843C129.239 177.372 132.952 178.242 135.014 178.775L138.764 179.744L138.834 193.956C138.878 202.826 139.228 207.415 139.764 206.167C140.237 205.067 140.655 199.154 140.694 193.028C140.779 179.586 140.122 178.445 131.347 176.786C124.21 175.436 120.406 175.484 126.764 176.843ZM149.98 221.336C150.178 228.771 150.643 232.13 151.514 232.419C152.464 232.734 152.764 230.172 152.764 221.75C152.764 212.456 152.516 210.667 151.23 210.667C149.93 210.667 149.74 212.291 149.98 221.336ZM65.7376 226.539C62.1486 230.128 61.1726 233.826 62.7856 237.72C64.5766 242.044 68.3656 244.667 72.8216 244.667C80.3976 244.667 85.6646 236.671 82.7406 229.611C81.0146 225.444 78.0916 223.667 72.9646 223.667C69.5026 223.667 68.0206 224.256 65.7376 226.539ZM66.6926 250.936C64.8406 252.184 62.0806 255.221 60.5576 257.686C57.3456 262.886 53.3116 277.729 54.1746 281.169C55.5116 286.494 77.8406 290.773 86.1326 287.293L90.0026 285.669L89.5896 276.232C89.2246 267.886 88.7766 266.011 85.7206 260.017C80.2586 249.309 73.7306 246.193 66.6926 250.936ZM150.764 253.052C150.764 256.756 151.053 257.493 152.317 257.008C154.199 256.286 153.947 249.546 152.014 248.911C151.137 248.623 150.764 249.858 150.764 253.052ZM150.999 280.703C151.276 284.572 151.756 287.992 152.067 288.303C153.549 289.786 154.764 287.033 154.764 282.19C154.764 275.799 154.078 273.667 152.023 273.667C150.75 273.667 150.579 274.84 150.999 280.703ZM152.431 309.334C152.064 309.7 151.78 312.963 151.799 316.584C151.833 322.798 151.915 323.027 153.264 320.667C154.05 319.292 154.709 316.03 154.729 313.417C154.762 308.997 154.043 307.721 152.431 309.334Z" fill="black"/>
</svg>
