<svg width="225" height="340" viewBox="0 0 225 340" fill="none" xmlns="http://www.w3.org/2000/svg">
<path fill-rule="evenodd" clip-rule="evenodd" d="M165.709 0.891028C164.91 1.39603 163.056 1.57003 161.59 1.27703C159.734 0.905027 158.353 1.34303 157.043 2.71803C156.008 3.80403 154.054 5.03403 152.7 5.45103C151.346 5.86903 148.54 7.92603 146.465 10.022C143.176 13.344 142.77 14.259 143.309 17.138C143.648 18.954 144.269 20.821 144.688 21.285C145.107 21.749 144.997 23.766 144.444 25.767C143.892 27.768 143.628 33.35 143.859 38.17C144.227 45.886 144.631 47.442 147.235 51.187C148.861 53.527 151.638 56.116 153.405 56.941C155.173 57.766 156.628 59.032 156.64 59.755C156.693 62.978 136.466 48.414 122.719 35.333L113.953 26.991L102.492 32.939C81.1117 44.034 55.0907 50.84 38.9757 49.552L31.7897 48.977L29.9757 56.709C27.4767 67.361 27.5037 97.255 30.0247 111.132C31.6787 120.236 31.6827 120.979 30.0977 123.398C28.8697 125.272 28.5407 127.333 28.8907 130.967C29.4157 136.441 31.8037 139.941 35.0127 139.941C36.5047 139.941 35.8577 140.708 32.6077 142.792C27.3787 146.144 17.5847 156.229 15.4377 160.47C4.48074 182.118 2.69174 227.02 11.1757 267.441C11.7777 270.31 11.5847 270.519 6.74974 272.226C0.92574 274.283 -1.61426 277.535 1.06974 279.498C3.17274 281.035 16.3217 282.31 20.2197 281.354C23.7817 280.481 24.6217 279.362 24.6607 275.441C24.6777 273.791 28.1717 259.636 32.4267 243.985L40.1617 215.528L51.3297 213.863C57.4727 212.946 65.7057 211.41 69.6267 210.449C73.5487 209.489 76.9117 208.869 77.1027 209.072C77.2927 209.275 76.7817 212.591 75.9677 216.441C74.9617 221.201 74.6217 227.122 74.9067 234.941C75.2837 245.264 75.6528 247.15 78.5098 253.363C83.1888 263.539 94.8517 282.608 100.361 289.089C108.351 298.488 130.717 317.433 144.497 326.475L148.832 329.319L144.32 331.612C139.76 333.93 137.61 337.289 139.485 339.164C140.966 340.645 159.053 339.691 161.059 338.027C163.987 335.597 162.827 330.607 155.784 315.346C143.61 288.963 133.662 261.994 133.662 255.371C133.662 253.044 142.506 243.644 155.223 232.456C170.815 218.738 176.213 213.547 179.809 208.814C186.832 199.571 189.199 197.254 193.9 195.023C200.617 191.835 209.319 181.927 214.289 171.811C216.55 167.207 218.745 162.316 219.166 160.941C219.587 159.566 220.363 158.163 220.891 157.824C222.917 156.521 224.892 143.229 224.886 130.941C224.875 108.864 219.317 94.562 205.209 80.315C198.535 73.575 195.604 71.447 188.031 67.842L178.9 63.496L178.299 57.739C177.701 52.02 177.725 51.953 181.929 47.598C184.257 45.187 187.789 40.116 189.778 36.328C193.431 29.372 193.877 25.654 191.685 20.441C191.222 19.341 190.56 17.766 190.213 16.941C187.929 11.501 182.827 6.28203 177.118 3.54403C174.942 2.50003 172.381 1.26303 171.426 0.794027C169.21 -0.293973 167.537 -0.265972 165.709 0.891028ZM146.679 24.397C146.119 25.868 145.662 30.779 145.662 35.31C145.662 42.144 146.098 44.424 148.222 48.685C150.348 52.953 151.524 54.105 155.173 55.498C159.14 57.013 159.513 57.437 159.026 59.872C158.534 62.331 159.024 62.855 164.582 65.818L170.677 69.066L173.67 66.936C176.512 64.911 176.662 64.45 176.662 57.694C176.662 50.814 176.778 50.477 180.243 47.303C184.509 43.395 184.572 40.284 180.376 40.729C178.061 40.974 177.662 40.643 177.662 38.479C177.662 37.083 177.16 35.941 176.545 35.941C175.921 35.941 175.659 35.059 175.951 33.942C176.239 32.843 176.066 31.691 175.568 31.383C175.07 31.075 174.662 29.95 174.662 28.882C174.662 27.814 173.77 26.049 172.68 24.959C171.066 23.345 169.721 23.058 165.43 23.413C154.066 24.352 150.765 24.271 149.252 23.015C147.926 21.915 147.544 22.12 146.679 24.397ZM104.908 33.417C85.8157 44.617 53.9177 53.164 38.1327 51.309L33.0577 50.712L31.7317 56.077C31.0017 59.027 30.1857 68.226 29.9167 76.518C29.4317 91.477 30.1887 100.856 33.2657 118.008L34.8017 126.574L37.7207 126.146C39.8907 125.827 40.8207 126.193 41.3497 127.572C42.5997 130.828 42.1157 135.782 40.3577 137.724C38.7517 139.499 38.7607 139.916 40.5227 145.024C48.8297 169.103 61.5087 188.007 73.3158 193.916C88.9688 201.75 114.067 193.567 132.53 174.61L136.898 170.125L135.149 165.546L133.4 160.968L127.281 166.636C110.364 182.306 91.9907 187.896 78.8807 181.363C63.6717 173.784 50.2477 147.039 44.0357 111.941C41.9267 100.028 41.8197 73.974 43.8467 65.941L45.2337 60.441L51.2797 60.773C66.4497 61.607 94.8447 53.145 109.836 43.322L112.511 41.57L121.558 50.18C131.833 59.957 146.623 70.22 160.907 77.485C169.819 82.017 170.653 82.687 170.657 85.314C170.67 93.1 157.673 124.158 147.379 140.941C144.849 145.066 143.09 148.739 143.47 149.103C143.851 149.468 145.918 149.918 148.064 150.103C151.897 150.435 152.037 150.326 155.971 143.941C162.12 133.96 171.064 115.682 176.034 102.941C180.278 92.061 184.373 78.224 183.543 77.569C183.333 77.404 177.766 74.457 171.171 71.022C150.663 60.338 132.055 47.144 119.696 34.523C116.69 31.453 113.765 28.991 113.196 29.051C112.627 29.112 108.898 31.077 104.908 33.417ZM146.662 30.941C146.662 31.491 147.562 31.941 148.662 31.941C149.762 31.941 150.662 31.491 150.662 30.941C150.662 30.391 149.762 29.941 148.662 29.941C147.562 29.941 146.662 30.391 146.662 30.941ZM162.662 30.941C166.329 32.115 170.888 32.115 170.162 30.941C169.822 30.391 167.433 29.986 164.853 30.041C161.012 30.122 160.615 30.285 162.662 30.941ZM152.782 37.351C150.298 43.989 150.553 45.968 153.881 45.882C155.88 45.831 155.959 45.685 154.519 44.705C153.03 43.691 153.012 43.124 154.328 38.693C156.471 31.477 155.346 30.501 152.782 37.351ZM148.662 36.941C148.662 38.808 148.929 39.074 149.862 38.141C150.795 37.208 150.795 36.674 149.862 35.741C148.929 34.808 148.662 35.074 148.662 36.941ZM160.662 36.441C160.662 37.266 161.112 37.941 161.662 37.941C162.212 37.941 162.662 37.266 162.662 36.441C162.662 35.616 162.212 34.941 161.662 34.941C161.112 34.941 160.662 35.616 160.662 36.441ZM107.101 46.189C100.411 50.362 85.2797 56.599 75.8777 59.059C71.6337 60.169 63.2117 61.384 57.1617 61.759L46.1617 62.441L44.8447 69.941C42.9087 80.959 43.9507 103.327 47.1087 118.553C53.6937 150.305 67.0067 174.591 81.0397 180.455C89.4827 183.982 103.93 181.263 114.949 174.074C122.445 169.183 133.178 158.585 132.215 157.026C131.836 156.414 129.757 155.01 127.594 153.906C123.431 151.782 122.507 149.35 125.412 148.159C126.375 147.764 127.162 146.766 127.162 145.941C127.162 145.116 128.174 144.297 129.412 144.121C130.65 143.946 131.662 143.144 131.662 142.34C131.662 139.819 134.669 139.506 136.316 141.857C137.497 143.544 138.15 143.781 139.204 142.906C139.953 142.284 141.405 142.042 142.43 142.368C143.931 142.844 145.104 141.542 148.439 135.7C157.106 120.517 166.957 97.017 169.088 86.441C169.681 83.501 169.497 83.342 159.927 78.485C145.833 71.332 131.469 61.399 121.088 51.627L112.039 43.108L107.101 46.189ZM157.356 50.515C154.931 52.612 154.812 52.941 156.484 52.941C158.603 52.941 161.053 50.57 160.507 49.048C160.317 48.52 158.899 49.18 157.356 50.515ZM114.111 102.441C102.225 110.416 92.1877 116.941 91.8067 116.941C91.4267 116.941 87.5357 113.341 83.1617 108.941C78.7877 104.541 74.6818 100.941 74.0378 100.941C72.1758 100.941 58.6617 111.91 58.6617 113.422C58.6617 116.302 79.4667 140.53 85.8337 145.064C88.7777 147.16 88.8457 147.162 92.9837 145.313C102.348 141.128 134.912 118.019 146.634 107.241L152.012 102.296L149.73 97.582C147.285 92.53 141.682 87.941 137.96 87.941C136.729 87.941 125.997 94.466 114.111 102.441ZM212.162 105.063C202.623 106.778 202.662 106.758 202.662 109.889C202.662 113.655 205.017 115.941 208.896 115.941C210.595 115.941 213.908 117.067 216.256 118.443C220.517 120.94 220.527 120.941 221.191 118.849C221.828 116.841 218.734 103.822 217.674 104.053C217.393 104.114 214.912 104.569 212.162 105.063ZM205.172 123.691C206.278 133.418 205.785 132.941 214.729 132.941H222.662V127.334C222.662 123.135 222.335 121.853 221.358 122.227C220.64 122.503 218.278 121.653 216.108 120.34C213.781 118.931 210.593 117.949 208.34 117.946L204.518 117.941L205.172 123.691ZM31.4067 124.529C29.9167 126.02 30.6287 134.678 32.4237 136.896C33.9027 138.721 34.6117 138.91 36.8267 138.068C40.5837 136.64 41.7657 134.447 38.3107 135.314C34.8207 136.19 34.8967 134.629 38.4117 133.24C40.9447 132.24 40.9837 132.145 38.9117 132.047C36.2237 131.92 35.9867 130.455 38.4117 128.967C39.8417 128.089 39.5327 127.943 36.7227 128.167C33.8387 128.397 33.1917 128.065 32.7177 126.112C32.4067 124.832 31.8167 124.119 31.4067 124.529ZM173.82 133.941C173.82 135.316 174.047 135.879 174.324 135.191C174.602 134.504 174.602 133.379 174.324 132.691C174.047 132.004 173.82 132.566 173.82 133.941ZM172.934 142.941C172.934 145.416 173.129 146.429 173.368 145.191C173.606 143.953 173.606 141.929 173.368 140.691C173.129 139.453 172.934 140.466 172.934 142.941ZM31.6617 145.31C25.6257 149.763 19.2827 156.803 16.6387 161.987C13.6297 167.885 10.0457 182.616 8.60474 195.013C7.10674 207.9 7.89874 237.747 10.0787 250.571C12.9667 267.556 13.6567 269.941 15.6837 269.941C17.6887 269.941 17.9937 268.551 19.2027 253.941C20.6477 236.478 25.6667 215.202 30.1907 207.364C32.3127 203.686 33.2607 203.07 39.8527 201.087C43.8727 199.878 52.1947 197.94 58.3457 196.781L69.5297 194.673L64.1217 189.73C55.2898 181.658 45.9557 166.068 40.1497 149.691C38.6387 145.429 37.1237 141.952 36.7817 141.966C36.4407 141.979 34.1367 143.484 31.6617 145.31ZM134.352 146.419C135.014 150.497 134.244 150.854 131.606 147.691C129.445 145.101 129.021 146.511 131.125 149.288C131.895 150.304 132.282 151.767 131.986 152.538C131.69 153.31 131.91 153.941 132.475 153.941C133.039 153.941 134.268 156.304 135.205 159.191C139.925 173.739 149.414 186.097 159.7 191.095C170.9 196.537 185.045 197.303 193.734 192.939C201.861 188.857 210.875 177.348 216.192 164.266C217.484 161.087 218.405 158.351 218.24 158.185C218.074 158.02 210.312 156.326 200.991 154.422C191.67 152.518 181.95 150.33 179.389 149.559C176.829 148.789 174.792 148.447 174.862 148.8C174.932 149.152 174.014 151.62 172.821 154.284C171.629 156.947 170.382 160.21 170.049 161.534C169.717 162.858 169.232 163.941 168.972 163.941C168.712 163.941 166.623 162.412 164.33 160.542C157.791 155.21 151.888 152.585 145.38 152.114C139.048 151.656 138.943 151.491 141.126 145.441C141.73 143.768 141.528 143.833 139.892 145.835C137.927 148.241 135.662 148.03 135.662 145.441C135.662 144.681 135.239 143.797 134.721 143.478C134.163 143.133 134.013 144.329 134.352 146.419ZM126.087 150.82C126.386 151.304 127.65 151.957 128.896 152.271C131.082 152.821 131.094 152.79 129.221 151.391C127.071 149.785 125.242 149.452 126.087 150.82ZM131.688 178.148C117.458 191.235 104.248 197.747 90.0397 198.676L81.9177 199.207L79.5397 209.324C77.6707 217.277 77.1617 222.248 77.1617 232.565V245.689L82.8557 257.065C91.0127 273.361 99.8037 286.385 108.083 294.441C122.396 308.367 148.202 327.941 152.251 327.941C154.491 327.941 154.242 327.315 147.981 317.191C139.552 303.56 127.852 279.732 124.239 268.835C121.342 260.099 119.9 247.814 121.052 241.675C121.527 239.145 123.452 236.472 127.937 232.116C135.922 224.36 150.528 212.668 162.838 204.177L172.514 197.503L167.603 196.246C157.009 193.535 147.584 186.577 140.962 176.58L138.096 172.254L131.688 178.148ZM55.0977 200.344C45.7127 202.724 37.0207 205.214 35.7817 205.877C31.5347 208.15 26.6117 224.116 22.8127 247.941C19.4847 268.808 19.4187 269.941 21.5157 269.941C23.0407 269.941 24.3947 265.99 29.9917 245.191C33.6557 231.578 37.1077 218.818 37.6647 216.834L38.6767 213.227L45.6997 212.574C53.5027 211.849 76.7817 207.17 77.8337 206.115C78.2037 205.744 78.8047 203.813 79.1707 201.824C79.7637 198.592 79.5857 198.154 77.4977 197.703C76.2127 197.425 74.4867 196.932 73.6617 196.607C72.8367 196.282 64.4827 197.963 55.0977 200.344ZM163.057 206.729C141.08 223.503 126.084 237.133 124.574 241.707C121.745 250.278 126.376 268.708 137.037 291.309C144.648 307.446 155.852 326.941 157.515 326.941C158.263 326.941 158.636 326.379 158.342 325.691C158.048 325.004 154.461 317.016 150.371 307.941C139.388 283.574 131.662 261.771 131.662 255.144C131.662 252.04 140.123 243.208 158.332 227.305C166.126 220.498 174.351 212.829 176.611 210.262L180.719 205.595L177.494 202.268C175.721 200.438 174.02 198.958 173.716 198.979C173.411 199 168.615 202.487 163.057 206.729Z" fill="black"/>
</svg>
