<svg width="340" height="267" viewBox="0 0 340 267" fill="none" xmlns="http://www.w3.org/2000/svg">
<path fill-rule="evenodd" clip-rule="evenodd" d="M143.718 0.538769C133.315 1.59777 120.006 4.09976 118.089 5.35576C111.893 9.41476 112.739 29.7038 119.411 37.0758C120.702 38.5028 122.61 38.8628 128.873 38.8628C136.574 38.8628 136.718 38.9088 136.718 41.3628C136.718 44.2218 137.883 44.5738 139.779 42.2898C142.145 39.4388 148.265 37.0128 154.792 36.3378C168.008 34.9708 172.545 32.7218 175.347 26.1448C177.308 21.5418 177.039 12.1668 174.804 7.24577C171.811 0.65277 169.886 -0.162229 157.745 0.0227706C151.955 0.110771 145.643 0.342769 143.718 0.538769ZM145.271 1.97976C128.853 3.38776 120.664 5.31277 117.968 8.39877C116.089 10.5498 115.718 12.1418 115.718 18.0528C115.718 26.5258 117.208 32.0208 120.457 35.5268C122.721 37.9688 123.283 38.0898 130.288 37.6398C137.538 37.1748 137.718 37.2198 137.718 39.4928C137.718 41.8198 137.722 41.8188 142.052 38.7668C145.632 36.2438 148.162 35.4638 156.59 34.2858C162.202 33.5018 167.924 32.1188 169.307 31.2128C176.723 26.3528 177.53 12.1608 170.818 4.64777C168.345 1.88177 167.32 1.48377 162.117 1.27677C158.872 1.14677 151.292 1.46376 145.271 1.97976ZM157.898 16.1128C158.074 17.3498 158.893 18.3628 159.718 18.3628C160.543 18.3628 161.362 17.3498 161.538 16.1128C161.783 14.3808 161.364 13.8628 159.718 13.8628C158.072 13.8628 157.653 14.3808 157.898 16.1128ZM143.898 18.1128C144.074 19.3498 144.893 20.3628 145.718 20.3628C146.543 20.3628 147.362 19.3498 147.538 18.1128C147.783 16.3808 147.364 15.8628 145.718 15.8628C144.072 15.8628 143.653 16.3808 143.898 18.1128ZM128.888 19.0328C129.314 22.0438 133.218 22.3408 133.218 19.3628C133.218 18.0298 132.441 17.2528 130.888 17.0328C128.949 16.7578 128.613 17.0938 128.888 19.0328ZM203.454 32.9508C194.001 34.3348 180.974 37.6918 176.805 39.8178C173.823 41.3398 172.496 42.8768 171.171 46.3468C168.694 52.8338 169.573 65.6818 173.007 73.1838C177.32 82.6028 181.907 84.0678 198.658 81.3728C207.213 79.9958 210.269 79.8588 212.794 80.7398C216.589 82.0628 221.718 82.2228 221.718 81.0178C221.718 80.5528 220.818 79.3588 219.718 78.3628C217.76 76.5908 217.934 76.4828 228.098 73.1958C233.807 71.3498 239.642 68.9238 241.064 67.8058C247.984 62.3618 247.049 40.6848 239.625 34.4378C236.645 31.9298 236.207 31.8658 222.891 31.9848C215.371 32.0518 206.624 32.4868 203.454 32.9508ZM206.718 34.3278C185.053 37.4438 175.919 40.6388 173.101 46.0898C169.283 53.4728 172.249 71.5938 178.259 77.6038C181.125 80.4698 182.164 80.8628 186.868 80.8648C189.811 80.8658 196.15 80.1448 200.957 79.2628C207.692 78.0268 210.42 77.9118 212.856 78.7608C217.27 80.2998 217.943 80.1518 216.74 77.9048C215.447 75.4888 216.079 75.1278 227.999 71.4718C233.513 69.7808 237.978 67.7078 239.999 65.9008C243.212 63.0278 243.218 63.0038 243.212 53.1928C243.206 42.4908 241.667 37.5908 237.468 34.9038C234.361 32.9158 218.595 32.6198 206.718 34.3278ZM4.48797 41.8288C0.115966 45.2678 -0.804034 49.0538 0.621966 57.7398C4.72497 82.7348 40.263 255.177 42.215 259.564C42.998 261.325 44.81 263.532 46.24 264.47C51.439 267.876 55.87 266.857 76.709 257.466C91.214 250.93 96.599 248.932 97.759 249.656C99.478 250.73 102.718 248.997 102.718 247.003C102.718 246.376 103.168 245.863 103.718 245.863C105.032 245.863 104.985 239.628 103.591 228.976C102.754 222.581 102.755 219.303 103.594 216.247L104.723 212.131L108.445 215.642C118.265 224.904 131.218 223.801 138.488 213.083C143.337 205.935 145.643 198.909 147.73 184.92C148.76 178.014 150.164 169.812 150.85 166.694C152.312 160.049 151.433 158.216 146.722 158.082C144.177 158.01 143.718 158.371 143.718 160.449C143.718 162.601 143.394 162.82 141.074 162.237C138.564 161.608 138.468 161.721 139.18 164.468C140.48 169.483 139.972 173.271 137.219 179.086C133.949 185.992 128.539 192.488 126.9 191.476C126.25 191.074 125.718 189.526 125.718 188.036C125.718 186.325 124.188 183.491 121.565 180.345C114.91 172.361 107.718 160.816 107.718 158.117C107.718 156.747 106.337 154.054 104.65 152.132C101.594 148.652 101.589 148.629 103.525 146.5C106.538 143.187 107.767 140.247 108.786 133.921C109.303 130.713 110.893 125.538 112.32 122.421C114.569 117.509 114.756 116.369 113.724 113.878C112.449 110.798 106.547 107.331 104.148 108.251C103.226 108.605 102.718 108.144 102.718 106.95C102.718 101.726 90.924 95.8508 83.305 97.2808C79.321 98.0278 79.937 99.8058 76.149 76.6278C73.176 58.4368 71.704 54.7418 66.475 52.3438C60.884 49.7798 17.793 39.8628 12.244 39.8628C8.53197 39.8628 6.25297 40.4408 4.48797 41.8288ZM297.718 45.8598C284.793 49.1178 273.227 52.2308 272.016 52.7798C268.325 54.4508 266.908 58.8488 263.241 80.0108C261.303 91.1958 259.718 100.628 259.718 100.971C259.718 102.103 249.014 98.0868 245.063 95.4728C234.748 88.6468 222.718 92.3268 222.718 102.308C222.718 104.603 223.328 107.315 224.073 108.334C225.027 109.638 225.285 112.182 224.946 116.926C223.999 130.16 230.768 143.863 238.253 143.863C239.609 143.863 240.718 144.196 240.718 144.602C240.718 147.215 236.811 153.968 234.513 155.325C229.657 158.194 219.225 169.232 216.032 174.88C214.327 177.896 211.905 183.595 210.65 187.544L208.368 194.726L202.492 184.554C199.26 178.96 195.772 173.478 194.742 172.373C193.032 170.537 192.995 170.067 194.311 166.956C195.697 163.684 195.426 159.863 193.809 159.863C193.383 159.863 192.517 158.136 191.885 156.026C190.49 151.369 187.071 147.779 186.198 150.054C185.889 150.859 186.117 152.783 186.705 154.329C187.293 155.875 187.649 157.214 187.496 157.304C181.489 160.847 181.458 160.897 182.118 165.714C182.469 168.271 183.171 176.663 183.678 184.363C185.142 206.566 190.681 223.684 198.275 229.472C206.204 235.514 220.277 232.077 228.62 222.06L232.218 217.74L234.296 224.552C235.858 229.675 236.165 232.3 235.534 235.142C234.488 239.854 235.258 243.083 238.053 245.704C239.244 246.821 249.668 251.878 261.218 256.942C283.537 266.727 288.099 267.809 293.125 264.516C294.536 263.591 296.324 261.829 297.099 260.599C298.763 257.959 339.718 56.0288 339.718 50.4658C339.718 47.4738 338.993 45.9378 336.318 43.2628C333.213 40.1578 332.411 39.8658 327.068 39.8998C323.345 39.9238 312.672 42.0908 297.718 45.8598ZM12.769 42.8118C11.641 43.9398 10.718 45.4068 10.718 46.0718C10.718 48.7378 50.881 258.3 51.677 259.787C52.148 260.666 53.407 262.177 54.476 263.144C56.35 264.84 57.127 264.573 76.172 255.682C89.775 249.332 95.37 246.267 94.143 245.837C90.732 244.64 78.142 247.566 66.761 252.199C60.46 254.764 54.753 256.863 54.079 256.863C53.404 256.863 52.617 256.075 52.328 255.113C51.908 253.713 38.395 181.697 15.625 59.5048C14.512 53.5328 13.857 48.3908 14.169 48.0788C15.043 47.2038 66.068 57.8788 67.328 59.1988C67.939 59.8388 69.869 67.7878 71.617 76.8628C73.365 85.9378 75.039 94.6008 75.336 96.1128C75.634 97.6248 76.433 98.8628 77.113 98.8628C78.029 98.8628 77.619 94.7698 75.535 83.1128C70.768 56.4348 70.916 56.9538 67.472 54.8598C65.78 53.8308 54.006 50.4498 41.307 47.3468C28.608 44.2438 17.454 41.4928 16.519 41.2328C15.585 40.9728 13.897 41.6838 12.769 42.8118ZM301.097 46.8458C274.175 53.6948 271.345 54.7388 269.405 58.5338C268.609 60.0898 266.517 70.5878 264.754 81.8628C262.992 93.1378 261.366 102.547 261.143 102.771C260.919 102.995 261.27 103.824 261.924 104.612C262.867 105.748 263.803 101.573 266.442 84.4488C268.273 72.5708 270.165 61.8168 270.646 60.5518C271.45 58.4368 273.674 57.8178 298.129 52.8998C312.763 49.9568 325.035 47.8468 325.399 48.2108C326.189 49.0008 326.492 47.2858 312.647 120.363C296.599 205.07 286.555 256.264 285.826 257.079C285.474 257.473 281.593 256.187 277.202 254.22C272.811 252.254 266.534 250.198 263.254 249.652C259.819 249.081 256.779 247.961 256.085 247.011C255.423 246.105 251.364 244 247.065 242.335C241.53 240.191 238.884 238.586 237.998 236.835C236.751 234.37 236.747 234.372 236.733 237.679C236.725 239.502 237.212 241.917 237.815 243.044C238.989 245.238 256.865 254.182 273.276 260.786C283.597 264.94 285.53 264.952 287.71 260.878C289.175 258.141 328.889 49.1158 328.521 46.0828C328.354 44.7118 327.318 42.9988 326.218 42.2768C324.491 41.1438 321.057 41.7688 301.097 46.8458ZM218.718 47.0208C216.243 47.5398 208.368 49.0798 201.218 50.4438C187.197 53.1188 185.166 53.6448 185.924 54.4018C186.439 54.9168 212.938 50.5578 220.718 48.6778C229.679 46.5128 227.955 45.0838 218.718 47.0208ZM15.718 51.0948C15.718 52.2498 37.098 166.603 38.274 171.736C38.792 173.997 38.882 174.021 40.177 172.25C41.081 171.014 41.232 169.823 40.627 168.693C38.922 165.506 39.716 163.261 44.174 158.676C48.099 154.637 48.565 153.691 48.087 150.727C47.65 148.023 48.03 146.908 50.019 145.044C51.627 143.537 52.313 142.031 51.977 140.746C51.663 139.544 52.291 137.882 53.576 136.514C55.382 134.591 55.549 133.759 54.71 130.835C53.357 126.117 53.937 124.918 60.196 119.515C65.101 115.28 65.594 114.495 65.053 111.789C64.526 109.152 65.042 108.21 69.186 104.239C73.842 99.7778 73.909 99.6238 73.231 95.0328C72.456 89.7778 66.661 60.4808 66.332 60.1468C66.048 59.8588 17.691 49.8628 16.582 49.8628C16.107 49.8628 15.718 50.4168 15.718 51.0948ZM297.718 54.8228C285.343 57.3998 274.592 59.7218 273.828 59.9818C272.362 60.4818 265.503 97.2448 263.775 113.863C263.289 118.538 262.368 123.713 261.727 125.363C261.018 127.191 260.817 130.419 261.214 133.625C262.075 140.581 264.907 142.212 275.681 141.953C284.023 141.753 293.178 144.095 300.464 148.295L304.71 150.743L305.224 148.553C305.507 147.348 309.569 126.392 314.252 101.984C318.935 77.5748 323.157 55.8628 323.636 53.7338C324.722 48.8998 326.521 48.8248 297.718 54.8228ZM218.718 56.4328C217.893 56.6188 210.695 57.9378 202.721 59.3638C194.748 60.7898 187.796 62.3848 187.271 62.9098C186.706 63.4748 186.695 63.8628 187.244 63.8628C190.366 63.8628 224.39 57.4858 225.168 56.7548C226.085 55.8938 222.012 55.6908 218.718 56.4328ZM132.736 62.3918C111.872 66.3388 102.594 70.5998 101.217 76.8658C99.962 82.5818 105.745 98.5238 110.113 101.386C111.81 102.498 114.074 102.944 116.736 102.69C120.728 102.309 120.772 102.341 120.15 105.172C119.547 107.918 119.619 107.987 121.869 106.809C123.161 106.133 125.343 104.794 126.718 103.833C128.093 102.872 131.693 101.355 134.718 100.46C144.759 97.4918 154.188 93.6168 156.579 91.4758C158.759 89.5258 158.897 88.8248 158.373 82.3628C157.619 73.0538 156.162 68.3908 152.847 64.6808C149.47 60.9018 143.94 60.2718 132.736 62.3918ZM140.218 62.5978C133.549 63.4508 114.299 68.1138 110.211 69.8658C101.827 73.4598 100.731 79.8438 106.297 92.6768C109.472 99.9978 112.708 102.331 118.246 101.292C121.318 100.715 121.718 100.884 121.718 102.752C121.718 105.353 122.099 105.368 125.508 102.907C126.999 101.832 133.163 99.3128 139.207 97.3088C157.871 91.1228 158.693 90.2808 156.782 79.3068C154.436 65.8348 149.988 61.3488 140.218 62.5978ZM208.346 65.8728C198.606 67.9258 196.189 68.6678 196.907 69.3848C197.568 70.0458 219.683 65.9908 221.631 64.8518C224.246 63.3228 218.27 63.7818 208.346 65.8728ZM126.932 76.8678C112.208 80.6588 106.164 82.7618 109.792 82.8328C111.896 82.8728 143.676 75.1008 146.218 73.9238C151.112 71.6588 141.419 73.1378 126.932 76.8678ZM130.718 82.2648C115.53 86.2188 109.852 88.0658 111.345 88.5688C112.666 89.0128 144.385 81.1678 146.666 79.8318C149.797 77.9998 143.285 78.9928 130.718 82.2648ZM131.755 89.4778C118.684 93.1248 116.822 93.8688 120.801 93.8538C125.442 93.8358 147.718 87.6578 147.718 86.3878C147.718 85.3428 143.989 86.0638 131.755 89.4778ZM189.218 91.3248C173.474 94.2068 170.22 97.8418 173.354 109.044C174.24 112.212 176.037 115.752 177.416 117.044C179.648 119.137 180.927 119.382 190.553 119.562C196.419 119.672 203.13 120.056 205.468 120.417C209.919 121.104 210.938 120.121 208.164 117.818C206.806 116.691 207.023 116.354 209.884 115.151C215.333 112.86 216.718 111.015 216.718 106.046C216.718 100.522 212.914 93.5328 208.729 91.3688C205.274 89.5818 198.818 89.5678 189.218 91.3248ZM190.218 92.5418C177.99 95.2748 173.718 97.8518 173.718 102.497C173.718 106.793 175.887 112.754 178.462 115.532C180.805 118.06 181.12 118.114 190.481 117.625C197.585 117.253 201.023 117.504 203.656 118.585C206.282 119.664 206.889 119.709 205.968 118.756C203.824 116.539 204.574 115.223 208.682 113.992C213.035 112.688 215.718 109.681 215.718 106.108C215.718 102.732 213.196 97.2498 210.318 94.3728C208.042 92.0968 207.083 91.8738 200.013 91.9788C195.726 92.0428 191.318 92.2958 190.218 92.5418ZM202.436 101.155C202.143 101.919 202.266 103.132 202.71 103.849C203.831 105.664 206.942 104.263 206.53 102.128C206.115 99.9688 203.161 99.2668 202.436 101.155ZM193.385 102.53C192.146 103.769 192.707 106.645 194.308 107.259C196.566 108.126 197.718 107.128 197.718 104.304C197.718 102.604 197.162 101.863 195.885 101.863C194.876 101.863 193.751 102.163 193.385 102.53ZM183.718 105.828C183.718 108.57 187.121 110.287 188.725 108.355C190.488 106.23 189.184 103.863 186.249 103.863C184.4 103.863 183.718 104.392 183.718 105.828ZM234.378 110.994C233.365 111.582 231.228 111.871 229.628 111.636C226.858 111.23 226.718 111.389 226.718 114.943C226.718 118.276 226.959 118.629 228.968 118.243L231.218 117.811L228.968 118.99C226.262 120.408 226.086 123.37 228.269 130.723C230.421 137.969 234.104 141.837 239.547 142.567C241.928 142.886 243.373 143.458 242.758 143.838C240.971 144.943 243.076 149.092 247.309 152.809L251.093 156.131L253.403 153.247C258.203 147.253 260.579 140.758 260.009 135.191C259.56 130.811 259.119 129.929 257.127 129.43C253.897 128.619 252.319 125.477 253.775 122.756C255.406 119.71 253.414 117.923 250.913 120.187C248.413 122.449 246.718 122.298 246.718 119.813C246.718 118.686 246.038 116.449 245.208 114.843C242.814 110.214 238.411 108.649 234.378 110.994ZM100.87 120.33C99.745 122.237 97.153 124.6 95.111 125.58C93.069 126.561 90.908 128.263 90.308 129.363C89.709 130.463 88.96 131.588 88.645 131.863C88.33 132.138 87.782 133.15 87.426 134.113C87.071 135.076 86.044 135.863 85.144 135.863C83.456 135.863 83.495 139.152 85.266 146.174C85.828 148.406 85.449 149.54 83.426 151.674C81.217 154.005 80.95 154.987 81.421 159.053C82.005 164.095 83.32 165.252 87.324 164.247C90.57 163.432 91.718 161.027 91.718 155.04C91.718 150.18 91.784 150.073 95.179 149.436C102.274 148.105 107.723 138.757 107.714 127.931C107.711 124.03 104.873 116.863 103.331 116.863C103.103 116.863 101.995 118.423 100.87 120.33ZM237.718 117.863C237.718 118.413 238.73 118.856 239.968 118.848C241.787 118.835 241.931 118.647 240.718 117.863C238.779 116.61 237.718 116.61 237.718 117.863ZM79.718 120.863C79.718 122.863 79.218 123.863 78.218 123.863C77.393 123.863 76.718 124.538 76.718 125.363C76.718 127.035 80.251 127.427 81.218 125.863C82.326 124.069 85.898 124.691 85.527 126.613C85.297 127.803 84.233 128.375 82.204 128.399C78.602 128.444 76.718 129.482 76.718 131.422C76.718 133.169 79.855 133.326 81.518 131.663C82.451 130.73 82.718 130.841 82.718 132.163C82.718 133.098 83.393 133.863 84.218 133.863C85.043 133.863 85.718 132.978 85.718 131.894C85.718 130.436 86.172 130.096 87.468 130.582C88.936 131.132 89.018 130.991 87.976 129.707C86.94 128.431 87.148 127.988 89.226 127.041C92.24 125.668 92.454 123.868 89.69 123.145C88.246 122.768 87.833 122.075 88.257 120.739C88.989 118.435 85.957 118.076 85.08 120.363C84.248 122.53 82.718 122.206 82.718 119.863C82.718 118.752 82.051 117.863 81.218 117.863C80.218 117.863 79.718 118.863 79.718 120.863ZM238.718 121.363C238.718 122.188 239.168 122.863 239.718 122.863C240.268 122.863 240.718 122.188 240.718 121.363C240.718 120.538 240.268 119.863 239.718 119.863C239.168 119.863 238.718 120.538 238.718 121.363ZM228.733 122.613C228.725 123.851 229.168 124.863 229.718 124.863C230.971 124.863 230.971 123.802 229.718 121.863C228.934 120.65 228.746 120.794 228.733 122.613ZM102.718 122.673C102.718 123.21 103.431 123.922 104.302 124.257C105.275 124.63 105.733 124.407 105.489 123.676C104.991 122.181 102.718 121.358 102.718 122.673ZM233.432 126.773C232.688 130.258 232.959 131.345 234.414 130.717C234.866 130.522 234.994 128.788 234.698 126.863L234.16 123.363L233.432 126.773ZM103.797 129.446C103.845 130.611 104.082 130.848 104.401 130.051C104.69 129.329 104.654 128.466 104.322 128.134C103.99 127.802 103.754 128.392 103.797 129.446ZM94.876 130.863C94.876 132.238 95.103 132.801 95.38 132.113C95.658 131.426 95.658 130.301 95.38 129.613C95.103 128.926 94.876 129.488 94.876 130.863ZM242.468 130.231C239.313 131.399 238.828 132.863 241.596 132.863C243.325 132.863 246.511 130.205 245.611 129.513C245.395 129.348 243.98 129.671 242.468 130.231ZM99.994 132.078C100.232 133.571 99.93 134.998 99.323 135.249C98.715 135.5 99.005 135.741 99.968 135.784C101.934 135.873 102.289 133.212 100.624 130.863C99.792 129.688 99.655 129.951 99.994 132.078ZM246.175 132.933C245.811 133.522 244.547 134.393 243.366 134.87C241.573 135.593 241.838 135.747 244.968 135.8C248.072 135.852 248.718 135.519 248.718 133.863C248.718 131.716 247.257 131.182 246.175 132.933ZM234.218 134.863C232.17 137.126 232.483 137.283 236.213 135.865C237.657 135.316 238.56 134.416 238.219 133.865C237.297 132.372 236.232 132.638 234.218 134.863ZM91.898 141.035C92.074 142.229 92.893 143.427 93.718 143.697C95.004 144.118 95.022 143.951 93.846 142.526C92.879 141.355 92.823 140.863 93.655 140.863C94.304 140.863 94.558 140.413 94.218 139.863C93.098 138.051 91.573 138.821 91.898 141.035ZM260.244 144.813C258.302 148.569 258.318 150.286 260.312 151.941C261.673 153.071 262.178 152.906 263.762 150.814C266.331 147.42 267.133 143.742 265.526 142.723C263.2 141.248 261.801 141.802 260.244 144.813ZM271.025 143.504C269.633 143.81 268.429 145.208 267.729 147.328C267.123 149.166 265.522 151.861 264.172 153.318C261.93 155.737 261.718 156.775 261.718 165.321C261.718 173.997 261.855 174.64 263.605 174.182C264.643 173.911 265.795 174.178 266.164 174.776C267.144 176.362 269.718 176.106 269.718 174.422C269.718 172.139 271.596 171.57 274.779 172.888C279.757 174.95 280.717 173.19 280.722 161.991C280.725 154.157 281.095 151.757 282.707 149.113C283.797 147.326 285.235 145.863 285.903 145.863C286.708 145.863 286.783 145.528 286.124 144.869C284.993 143.738 274.334 142.774 271.025 143.504ZM286.478 147.837C279.37 153.428 281.27 175.645 290.798 198.363L294.153 206.363L296.85 192.363C298.334 184.663 300.652 172.601 302 165.559L304.453 152.754L297.61 149.309C293.847 147.414 290.367 145.863 289.878 145.863C289.388 145.863 287.858 146.751 286.478 147.837ZM240.06 151.414C239.501 152.871 243.159 157.863 244.785 157.863C246.542 157.863 246.43 154.767 244.59 152.427C242.283 149.494 240.914 149.188 240.06 151.414ZM253.964 155.078C251.404 157.639 250.496 158.041 249.507 157.052C248.519 156.064 247.936 156.249 246.645 157.96C245.05 160.075 244.978 160.08 242.207 158.264L239.389 156.418L240.031 169.89C240.384 177.3 241.595 188.75 242.721 195.334C245.43 211.163 252.626 241.036 254.108 242.61C255.043 243.602 255.737 243.538 257.509 242.297C259.595 240.836 259.63 240.632 258.053 239.055C256.476 237.478 256.602 237.335 260.055 236.773C262.082 236.444 263.848 235.982 263.979 235.747C264.11 235.513 266.355 233.065 268.967 230.309L273.716 225.297L270.137 216.83C262.976 199.884 258.991 178.991 259.96 163.463C260.314 157.787 260.09 154.725 259.235 153.555C257.627 151.356 257.711 151.332 253.964 155.078ZM187.718 153.048C187.718 153.37 188.415 155.148 189.267 156.998C190.812 160.351 190.815 160.353 190.197 157.363C189.661 154.772 187.718 151.39 187.718 153.048ZM233.058 159.624C227.291 164.921 225.718 168.567 225.718 176.635C225.718 181.278 225.936 181.927 227.154 180.916C228.199 180.049 229.134 180.015 230.587 180.793C232.234 181.674 232.695 181.511 233.219 179.86C233.682 178.402 234.446 178.007 236.036 178.404C238.184 178.94 238.219 178.762 238.311 166.906C238.362 160.282 238.362 154.868 238.311 154.874C238.26 154.88 235.896 157.018 233.058 159.624ZM98.276 159.573C97.973 160.362 98.174 161.846 98.722 162.87C99.27 163.894 99.706 165.774 99.691 167.047C99.666 169.243 99.523 169.194 96.941 166.104C93.844 162.397 93.212 162.226 90.955 164.483C89.71 165.728 88.12 165.978 84.084 165.561C77.658 164.898 76.842 165.704 77.056 172.506C77.244 178.474 75.86 180.495 68.935 184.365C66.477 185.739 64.236 186.863 63.954 186.863C63.672 186.863 63.734 184.012 64.091 180.528C64.673 174.846 64.517 173.995 62.584 172.278C61.398 171.225 59.563 168.43 58.506 166.067C56.879 162.431 56.248 161.87 54.401 162.416C51.073 163.399 45.55 168.084 42.298 172.68L39.378 176.808L42.247 192.436C45.557 210.465 45.062 209.87 57.391 210.631L64.564 211.074L65.261 206.422C65.645 203.864 65.674 199.992 65.327 197.817C64.94 195.4 65.088 193.863 65.706 193.863C67.118 193.863 67.424 204.879 66.172 210.613C65.88 211.947 64.935 212.863 63.851 212.863C62.652 212.863 61.39 214.329 60.191 217.113C59.185 219.45 58.198 221.643 57.999 221.984C57.8 222.326 59.769 223.142 62.374 223.798C64.978 224.454 72.126 227.662 78.258 230.927C87.276 235.729 90.295 236.863 94.062 236.863H98.718V232.472C98.718 230.058 99.892 223.645 101.326 218.222C104.577 205.937 105.364 192.897 103.447 183.113C102.666 179.125 102.39 175.863 102.834 175.863C104.596 175.863 106.141 184.935 106.178 195.509L106.218 206.656L108.848 205.296C115.443 201.885 123.718 192.018 123.718 187.564C123.718 186.515 121.658 183.366 119.141 180.566C116.623 177.766 112.432 171.862 109.826 167.447C105.872 160.747 104.569 159.312 101.957 158.778C99.711 158.319 98.671 158.543 98.276 159.573ZM186.788 161.613C186.851 164.05 186.956 164.135 187.718 162.363C188.892 159.632 188.892 158.863 187.718 158.863C187.168 158.863 186.75 160.101 186.788 161.613ZM249.468 160.441C246.231 163.701 251.91 200.465 257.658 213.46C261.01 221.038 261.132 217.81 257.856 208.204C253.773 196.231 251.756 185.55 250.919 171.481C250.534 164.993 249.881 160.025 249.468 160.441ZM183.718 163.245C183.718 164.07 184.168 165.023 184.718 165.363C185.268 165.703 185.718 165.306 185.718 164.481C185.718 163.656 185.268 162.703 184.718 162.363C184.168 162.023 183.718 162.42 183.718 163.245ZM190.266 163.274C192.228 164.709 193.718 164.506 193.718 162.804C193.718 162.286 192.507 161.863 191.027 161.863C188.465 161.863 188.428 161.931 190.266 163.274ZM142.741 165.863C142.309 166.138 141.958 167.54 141.962 168.979C141.974 173.904 138.494 182.053 133.64 188.465C130.781 192.243 129.022 195.491 129.359 196.371C130.467 199.258 128.063 197.825 126.594 194.723L125.107 191.583L121.484 196.626C118.13 201.294 111.622 206.651 107.468 208.163C104.792 209.137 105.314 210.337 110.332 214.754C115.28 219.109 119.478 220.427 125.735 219.588C131.661 218.793 135.251 215.587 139.23 207.535C142.653 200.61 143.434 197.466 147.968 172.363L149.232 165.363H146.379C144.811 165.363 143.173 165.588 142.741 165.863ZM186.99 166.756C183.58 168.453 183.081 169.803 184.726 172.878C185.687 174.674 185.872 174.682 188.72 173.062C190.641 171.969 191.708 170.561 191.712 169.113C191.715 167.875 191.752 166.537 191.793 166.138C191.922 164.887 190.333 165.092 186.99 166.756ZM221.933 169.613C217.861 174.782 214.336 182.043 211.602 190.888C210.331 194.999 209.275 198.663 209.255 199.03C209.139 201.125 207.898 200.514 207.421 198.126C207.112 196.583 204.465 191.28 201.539 186.342L196.218 177.363L192.718 180.652C190.793 182.461 188.182 184.203 186.915 184.524C185.059 184.993 184.709 185.615 185.112 187.735C185.386 189.18 185.899 192.388 186.252 194.863C188.849 213.108 194.507 225.602 201.918 229.458C209.543 233.425 222.037 228.383 228.397 218.772L230.997 214.843L228.402 205.103C224.533 190.587 223.127 179.134 224.324 171.895C224.873 168.577 225.224 165.863 225.104 165.863C224.984 165.863 223.557 167.551 221.933 169.613ZM188.468 175.106C184.6 177.324 183.648 178.863 186.145 178.863C186.929 178.863 187.719 179.63 187.9 180.568C188.173 181.985 188.817 181.742 191.723 179.128C194.834 176.329 195.053 175.817 193.718 174.469C192.379 173.118 191.815 173.187 188.468 175.106ZM271.275 176.086C269.907 178.038 269.371 178.17 266.778 177.192C265.159 176.58 263.583 176.332 263.276 176.638C260.47 179.445 267.235 208.267 273.579 220.532L275.218 223.701L281.716 218.801C285.29 216.105 289.453 213.387 290.966 212.76C292.48 212.133 293.718 211.043 293.718 210.338C293.718 209.632 291.918 205.299 289.717 200.709C287.517 196.119 284.662 188.183 283.372 183.074C281.415 175.321 280.82 174.035 279.772 175.298C278.662 176.635 278.188 176.64 275.672 175.339C273.015 173.965 272.725 174.014 271.275 176.086ZM234.718 182.408C234.718 183.616 233.995 183.818 231.404 183.332C226.186 182.353 225.67 183.934 227.804 194.365C228.816 199.316 231.912 210.96 234.682 220.241C237.452 229.521 239.718 237.241 239.718 237.395C239.718 237.549 241.631 238.345 243.968 239.163C246.305 239.982 248.953 240.952 249.851 241.319C251.325 241.922 251.303 241.335 249.621 235.27C247.521 227.695 241.521 199.114 239.723 188.113C238.733 182.058 238.223 180.863 236.628 180.863C235.572 180.863 234.718 181.554 234.718 182.408ZM45.722 210.996C45.724 211.198 47.074 218.508 48.722 227.24C50.37 235.972 51.718 243.469 51.718 243.899C51.718 244.329 54.868 245.244 58.718 245.932C64.434 246.954 67.508 246.933 75.468 245.818C80.831 245.068 88.192 244.387 91.826 244.305C95.46 244.223 98.998 243.808 99.688 243.382C100.41 242.935 101.311 243.191 101.814 243.985C102.471 245.021 102.691 244.835 102.703 243.235C102.725 240.145 100.964 239.193 94.14 238.606C89.296 238.19 85.945 236.967 77.64 232.582C66.585 226.746 57.431 223.304 55.74 224.349C53.919 225.475 54.655 222.849 57.218 219.078C58.593 217.054 59.718 214.891 59.718 214.27C59.718 213.649 57.58 212.865 54.968 212.528C52.356 212.19 49.205 211.625 47.968 211.272C46.731 210.919 45.72 210.795 45.722 210.996ZM288.124 216.484C283.393 219.686 280.872 221.643 276.247 225.704L272.721 228.799L276.391 235.581C278.41 239.311 280.167 242.509 280.297 242.687C280.5 242.966 286.622 240.125 287.548 239.323C288.065 238.874 292.716 214.528 292.354 214.165C292.175 213.987 290.272 215.03 288.124 216.484ZM100.82 231.506C100.744 236.112 101.093 237.793 102.218 238.225C103.999 238.908 103.998 238.991 102.277 231.363L100.923 225.363L100.82 231.506ZM268.395 232.667C266.146 235.153 266.27 236.423 269.26 241.525C271.886 246.005 274.01 246.851 277.014 244.613C278.551 243.467 278.416 242.867 275.389 237.424C273.573 234.158 271.633 231.335 271.079 231.15C270.525 230.965 269.317 231.648 268.395 232.667ZM261.041 238.984C262.771 239.99 262.776 240.142 261.136 241.954C259.785 243.447 259.714 243.87 260.813 243.895C261.855 243.918 261.766 244.27 260.468 245.255C259.506 245.986 258.718 246.787 258.718 247.036C258.718 247.746 266.037 247.3 267.851 246.478C269.324 245.811 269.275 245.355 267.351 241.809C265.593 238.571 264.69 237.883 262.218 237.902C259.621 237.921 259.463 238.066 261.041 238.984ZM280.218 244.92C276.918 246.507 273.226 247.706 272.014 247.584C267.751 247.156 270.237 249.393 277.079 252.141C280.882 253.67 284.208 254.706 284.469 254.445C285.271 253.644 287.511 241.857 286.844 241.949C286.5 241.996 283.518 243.333 280.218 244.92ZM53.169 250.47C53.569 252.611 54.024 254.493 54.18 254.652C54.336 254.811 57.735 253.643 61.733 252.057L69.003 249.172L63.152 248.484C59.934 248.106 56.208 247.522 54.872 247.187C52.528 246.598 52.467 246.714 53.169 250.47Z" fill="black"/>
</svg>
