<?xml version="1.0" encoding="UTF-8"?>
<svg version="1.1" xmlns="http://www.w3.org/2000/svg" width="2000" height="525">
<path d="M0 0 C7.84048948 6.45784554 11.28512245 16.47877255 14.875 25.6875 C15.83818958 28.10534643 16.80444741 30.52197237 17.7734375 32.9375 C18.14588844 33.86710541 18.14588844 33.86710541 18.52586365 34.81549072 C21.21600838 41.49806206 24.10614566 48.09100524 27 54.6875 C34.92552365 72.80452657 42.38451064 91.11197104 49.8125 109.4375 C50.2176181 110.43659393 50.2176181 110.43659393 50.63092041 111.45587158 C55.70852329 123.98626043 60.69520725 136.5518446 65.60546875 149.14868164 C76.7796167 177.81221429 88.14520959 206.3962119 99.59094238 234.95227051 C101.8861901 240.67988213 104.17931355 246.40834415 106.47265625 252.13671875 C110.91728122 263.23777671 115.36411161 274.33794961 119.8125 285.4375 C122.12661563 281.96632656 123.40580427 278.3844851 124.8046875 274.48828125 C125.10230988 273.66901657 125.39993225 272.84975189 125.70657349 272.00566101 C126.70430934 269.25523788 127.69596756 266.50266501 128.6875 263.75 C129.39691559 261.78963398 130.10655626 259.82934939 130.81640625 257.86914062 C136.95703701 240.8906372 143.01968979 223.88413299 149.08145142 206.87734985 C154.96212306 190.37887357 160.88378482 173.89617394 166.875 157.4375 C167.37882202 156.05304688 167.37882202 156.05304688 167.89282227 154.640625 C168.83533804 152.0518047 169.77869941 149.46329516 170.72265625 146.875 C170.99360611 146.1317749 171.26455597 145.3885498 171.54371643 144.62280273 C171.8000737 143.92098877 172.05643097 143.2191748 172.32055664 142.49609375 C172.56136459 141.81956253 172.80217255 141.14303131 173.05027771 140.44599915 C173.8125 138.4375 173.8125 138.4375 174.76332092 136.40788269 C176.50901099 132.52708684 176.93043056 130.94645482 175.93481445 126.6496582 C175.37641334 125.33365579 174.7882828 124.02999175 174.17578125 122.73828125 C173.71054047 121.67473671 173.71054047 121.67473671 173.23590088 120.58970642 C172.22495829 118.29715042 171.17625683 116.02431439 170.125 113.75 C169.41776801 112.1705227 168.71261788 110.59011163 168.00952148 109.00878906 C166.28639411 105.15355314 164.53106875 101.31427143 162.75805664 97.48175049 C161.9131239 95.65504429 161.07430999 93.82551073 160.23632812 91.99560547 C156.57604336 84.02215535 152.8016359 76.15019039 148.53320312 68.48339844 C140.45265996 53.94911333 135.43377153 37.67584947 139.05078125 21.02734375 C142.22814687 10.22430065 148.09736063 2.93484716 157.8125 -2.5625 C166.82485996 -7.14563561 178.17804405 -7.06759493 187.6875 -4.0625 C198.76274635 0.66994948 205.14233105 9.67303889 209.69335938 20.54101562 C211.51928061 25.13201847 213.19524357 29.76937522 214.8125 34.4375 C215.32039063 33.38691406 215.82828125 32.33632812 216.3515625 31.25390625 C223.72058255 16.15416333 231.25553154 1.8429593 247.8125 -4.5625 C257.52522324 -7.67941947 268.82694443 -5.98692293 277.8125 -1.5625 C286.22932862 3.7583483 292.53342208 10.56149569 294.8125 20.4375 C296.82598351 33.58322409 294.33248006 43.36360236 288.3125 55.0625 C287.13520694 57.42537096 285.96321096 59.79001338 284.80078125 62.16015625 C284.48792679 62.79716965 284.17507233 63.43418304 283.85273743 64.09049988 C279.46514896 73.10381388 275.50266461 82.3112107 271.5 91.5 C271.12649414 92.35692444 270.75298828 93.21384888 270.36816406 94.09674072 C270.00174805 94.93767273 269.63533203 95.77860474 269.2578125 96.64501953 C268.89499176 97.47735107 268.53217102 98.30968262 268.15835571 99.16723633 C267.4402012 100.81859751 266.72465015 102.47109355 266.0118103 104.12475586 C264.22327979 108.26280099 262.38803411 112.36787678 260.45556641 116.44091797 C260.07817825 117.24887314 259.7007901 118.05682831 259.31196594 118.88926697 C258.59805241 120.41204523 257.87056482 121.92856606 257.12687683 123.43702698 C254.4353407 129.22461712 254.58441452 132.94056386 256.73664856 139.06898499 C257.98968454 142.36779809 259.31439906 145.63083693 260.65625 148.89453125 C261.17097632 150.16298985 261.6849674 151.43174701 262.19828796 152.70077515 C263.30960926 155.44400261 264.42576777 158.18519181 265.54574585 160.92489624 C267.33287273 165.29683411 269.10942026 169.67301905 270.8840332 174.05004883 C272.78874933 178.74676438 274.69409174 183.44321972 276.6028595 188.13829041 C281.74454979 200.78739263 286.85370076 213.44942021 291.94921875 226.1171875 C292.32788715 227.05858015 292.70655556 227.9999728 293.09669876 228.9698925 C294.9859196 233.66705692 296.87468133 238.36440577 298.76318359 243.06185913 C302.02467837 251.17416787 305.28918466 259.28526477 308.5534153 267.39647293 C310.10632414 271.25538155 311.6590059 275.11438154 313.21166992 278.97338867 C313.47788399 279.6350343 313.74409805 280.29667994 314.01837921 280.97837543 C314.61642262 282.46474902 315.21446186 283.95112429 315.8125 285.4375 C318.5477408 279.44708099 321.03640605 273.40954874 323.33203125 267.23828125 C323.66310379 266.35490082 323.99417633 265.47152039 324.33528137 264.56137085 C325.43467578 261.62529397 326.52991515 258.6876867 327.625 255.75 C328.41244989 253.64358082 329.20005155 251.53721837 329.98779297 249.4309082 C338.71778329 226.07052165 347.37829706 202.68418247 356.04399109 179.29988861 C360.43673303 167.44647512 364.83986713 155.59695323 369.25 143.75 C369.88362818 142.04752674 370.5172545 140.34505279 371.15087891 138.64257812 C373.73612418 131.69709047 376.32242989 124.7519989 378.91064453 117.80761719 C379.62923255 115.87955758 380.34781979 113.95149769 381.06640625 112.0234375 C381.42037476 111.07374588 381.77434326 110.12405426 382.13903809 109.14558411 C384.84794826 101.8759491 387.54977947 94.60370152 390.24841309 87.33024597 C391.93363189 82.79138658 393.63274057 78.25821662 395.34765625 73.73046875 C399.26598504 63.30592943 402.4572569 52.82695746 405.37890625 42.0793457 C410.24532162 24.33346868 417.70400877 7.27623614 434.22265625 -2.37109375 C443.84727909 -6.79871059 455.68410963 -7.34485358 465.75 -3.9375 C475.87483467 0.40388338 484.35656406 6.79725954 489.25 16.875 C493.11139382 27.86901209 491.85247264 39.956887 486.98046875 50.375 C484.01792659 56.16970348 480.47127738 61.67169603 476.83520508 67.06347656 C471.21699587 75.62764309 467.5932226 84.96471705 463.8125 94.4375 C463.31985657 95.6662384 463.31985657 95.6662384 462.81726074 96.9197998 C460.38624415 102.99598989 458.00118934 109.08969935 455.625 115.1875 C455.24632782 116.15682465 454.86765564 117.12614929 454.47750854 118.12484741 C447.57545396 135.79516848 440.7994522 153.51289815 434.04522705 171.24014282 C417.20319407 215.44227873 400.23220882 259.5990369 382 303.25 C381.68758362 303.99876404 381.37516724 304.74752808 381.05328369 305.51898193 C375.56536034 318.67116669 375.56536034 318.67116669 373.23779297 324.14941406 C367.32746074 338.07496935 362.23992688 351.99888493 357.87792969 366.47338867 C349.06715627 395.6076528 349.06715627 395.6076528 336 403.46484375 C326.65693403 407.6191713 314.51526591 408.28199578 304.6328125 405.5625 C302.13644462 404.38041926 300.02765797 403.08304592 297.8125 401.4375 C297.14605469 400.97601562 296.47960938 400.51453125 295.79296875 400.0390625 C261.44260889 373.34470001 248.91740252 308.28562363 234.49307251 269.34408569 C228.79334983 253.96309696 222.90927548 238.665654 216.8125 223.4375 C214.78507782 226.47863327 213.59648154 229.26715977 212.2578125 232.6640625 C212.00449158 233.30274765 211.75117065 233.9414328 211.49017334 234.59947205 C210.63637977 236.75267727 209.78703105 238.90760985 208.9375 241.0625 C207.67493037 244.25251983 206.40877388 247.44110046 205.140625 250.62890625 C204.80114838 251.4823613 204.46167175 252.33581635 204.11190796 253.21513367 C201.41037812 259.98563197 198.64477512 266.7284725 195.859375 273.46484375 C185.19538139 299.27696807 175.13238042 325.10635946 166.44549561 351.64967346 C165.63692972 354.12023239 164.82532741 356.58978085 164.01367188 359.05932617 C162.99208716 362.16945546 161.98722067 365.28422971 160.99414062 368.40356445 C156.25603958 383.0873115 150.22761956 397.1361431 135.890625 404.5625 C127.56135976 408.06955905 114.83635689 407.99560466 106.3125 405 C77.86622588 390.94763817 67.44936859 348.30371635 56.83422852 321.15673828 C56.45501251 320.18706116 56.07579651 319.21738403 55.68508911 318.21832275 C54.88864492 316.1814454 54.09248646 314.14445631 53.29660034 312.10736084 C43.92419646 288.13072022 34.37458131 264.22504816 24.81583023 240.32221985 C23.58325188 237.23940279 22.3513857 234.15630208 21.11972046 231.07312012 C12.8616914 210.40406614 4.56995703 189.74975253 -3.875 169.15625 C-4.1931089 168.37985924 -4.5112178 167.60346848 -4.83896637 166.80355072 C-11.75744026 149.93019714 -18.9129234 133.16010127 -26.1875 116.4375 C-26.46378235 115.8013678 -26.7400647 115.1652356 -27.02471924 114.50982666 C-34.28115632 97.80764539 -41.8556152 81.33116662 -50.41015625 65.25 C-58.13639394 50.57795267 -64.78763183 34.42549424 -59.75 17.75 C-55.40852611 7.33653464 -47.36095907 0.80628273 -37.1875 -3.5625 C-25.32327641 -7.98644778 -10.57059466 -7.00078783 0 0 Z " fill="#000000" transform="translate(990.1875,117.5625)"/>
<path d="M0 0 C7.24446143 5.83124263 11.95970872 13.35440352 13.875 22.47265625 C13.98959601 26.21733486 13.79014165 29.92242715 13.5625 33.66015625 C13.48999023 35.10745117 13.48999023 35.10745117 13.41601562 36.58398438 C13.17365087 41.18891465 12.84550991 45.7685939 12.38208008 50.35620117 C11.52103323 60.6417291 11.53995353 70.97820699 11.375 81.29296875 C11.33438631 83.63818042 11.29336262 85.98338501 11.25195312 88.32858276 C11.14380776 94.5000279 11.04000366 100.67153747 10.9375 106.84307861 C10.77488433 116.61192929 10.60754784 126.3806984 10.43724251 136.14941788 C10.39558266 138.54626928 10.35431964 140.94312761 10.31344414 143.33999252 C10.08700658 156.56193941 9.79090147 169.77304263 9.31640625 182.98828125 C8.47002783 207.87790712 8.76279749 232.80248808 8.80297244 257.70361483 C8.81436929 264.89402264 8.81970316 272.08443166 8.82467639 279.27484632 C8.83499449 294.00745882 8.85246245 308.74005721 8.875 323.47265625 C11.59793295 322.35483647 14.32054079 321.23623599 17.04296875 320.1171875 C17.80927612 319.80269653 18.5755835 319.48820557 19.3651123 319.16418457 C23.32446023 317.5359918 27.26589735 315.87782673 31.1875 314.16015625 C40.64560092 310.46333508 50.08985676 309.40041902 59.875 312.47265625 C69.8295525 317.2893752 74.82962157 324.49682134 78.89453125 334.5078125 C82.56096616 345.59476109 81.58110148 356.86375891 76.875 367.47265625 C73.26169826 373.54627148 68.97281347 376.70834081 62.484375 379.38671875 C61.87338959 379.64022598 61.26240417 379.89373322 60.63290405 380.15492249 C53.97964996 382.89063587 47.25453427 385.43639454 40.5 387.91015625 C39.53853561 388.26241776 39.53853561 388.26241776 38.55764771 388.62179565 C-18.35388528 409.39411433 -18.35388528 409.39411433 -40.125 399.47265625 C-51.43091832 392.5165507 -58.05324974 382.8762846 -61.2890625 370.078125 C-63.05862683 362.56252582 -64.36389976 355.15976863 -65.125 347.47265625 C-65.63546875 348.06691406 -66.1459375 348.66117187 -66.671875 349.2734375 C-95.09349424 381.67609915 -138.36172845 403.37928534 -181.52944946 406.65512085 C-187.24829813 406.94421672 -192.9628435 406.9523744 -198.6875 406.91015625 C-199.55496857 406.9074472 -200.42243713 406.90473816 -201.31619263 406.90194702 C-221.95072079 406.80467128 -241.54532224 404.18568862 -261.125 397.47265625 C-261.76099121 397.26447266 -262.39698242 397.05628906 -263.05224609 396.84179688 C-289.6013951 388.10188963 -311.93909596 372.45085663 -332.125 353.47265625 C-333.08019531 352.59867187 -333.08019531 352.59867187 -334.0546875 351.70703125 C-369.3864198 318.23486381 -387.62346874 264.78179673 -390.03515625 217.25390625 C-391.36280533 161.37719711 -379.47494944 106.41375979 -343.125 62.47265625 C-342.72120117 61.97475586 -342.31740234 61.47685547 -341.90136719 60.96386719 C-311.09609187 23.099515 -265.90271559 -2.34847518 -217.125 -7.52734375 C-168.63988851 -11.75626828 -121.44334822 0.61527494 -83.41015625 31.64453125 C-78.32784343 35.92722685 -73.69391752 40.65198205 -69.125 45.47265625 C-69.11041748 44.8993457 -69.09583496 44.32603516 -69.08081055 43.73535156 C-68.19061565 12.36777723 -68.19061565 12.36777723 -58.33984375 1.50390625 C-42.00202182 -13.82701214 -17.45176273 -12.54345446 0 0 Z M-279.125 100.47265625 C-306.35096981 133.25494643 -317.28997322 175.02710027 -313.66235352 217.15429688 C-309.95694173 253.29916059 -294.90012579 287.49266304 -267.125 311.47265625 C-241.2551433 331.91938937 -210.5504853 338.41992797 -178.08300781 335.16796875 C-144.97996036 330.58104948 -114.36996174 310.05904564 -94.296875 283.80859375 C-82.9111155 268.51335502 -73.98639549 251.62225064 -68.125 233.47265625 C-67.71378906 232.34472656 -67.30257812 231.21679688 -66.87890625 230.0546875 C-60.67035359 210.35488545 -62.1340958 185.70924789 -69.125 166.47265625 C-69.57687143 165.12935982 -70.02740416 163.78561229 -70.4765625 162.44140625 C-83.99096912 123.2899399 -109.83441099 89.37691318 -147.125 70.47265625 C-192.41139204 48.86919882 -246.66593909 64.03901645 -279.125 100.47265625 Z " fill="#000000" transform="translate(820.125,117.52734375)"/>
<path d="M0 0 C1.051875 0.721875 2.10375 1.44375 3.1875 2.1875 C9.54046748 8.54046748 14.12302428 15.74022086 14.1328125 24.8125 C14.13410156 25.97136719 14.13539063 27.13023437 14.13671875 28.32421875 C14.13285156 29.53722656 14.12898438 30.75023437 14.125 32 C14.12886719 33.18207031 14.13273437 34.36414063 14.13671875 35.58203125 C14.13478516 37.33580078 14.13478516 37.33580078 14.1328125 39.125 C14.13168457 40.17945313 14.13055664 41.23390625 14.12939453 42.3203125 C14.02511747 45.28571599 13.81148366 48.17514722 13.52490234 51.12524414 C12.93110338 57.36904591 12.67254706 63.60375696 12.46875 69.87109375 C12.42721802 71.11555771 12.38568604 72.36002167 12.34289551 73.64219666 C11.8284714 90.1114186 11.6787275 106.5869219 11.5 123.0625 C11.43077426 129.40759874 11.35828129 135.75264733 11.28125 142.09765625 C11.27184324 142.89322308 11.26243649 143.6887899 11.25274467 144.50846481 C11.14542555 153.37198183 10.98097133 162.22771788 10.68008137 171.086936 C9.71804115 199.43613835 9.88358754 227.79495794 9.92797291 256.15652317 C9.93937378 263.57430209 9.94470451 270.99208219 9.94967639 278.40986776 C9.95999057 293.60658828 9.97745481 308.80329231 10 324 C11.06943848 323.52804199 12.13887695 323.05608398 13.24072266 322.56982422 C14.67346724 321.93969822 16.10624919 321.30965719 17.5390625 320.6796875 C18.24039307 320.36990967 18.94172363 320.06013184 19.66430664 319.7409668 C33.21251459 313.79163832 46.18727138 308.31544746 61 313 C70.68187905 317.57071164 76.71752248 325.75447473 80.2890625 335.66015625 C81.24226198 338.79733475 81.76201915 341.72776334 82 345 C82.07734375 346.01126953 82.07734375 346.01126953 82.15625 347.04296875 C82.53494981 355.95819342 80.14642149 364.70923622 75 372 C70.36250148 376.78631202 65.50362639 379.44994998 59.3125 381.75 C58.46018799 382.07726074 57.60787598 382.40452148 56.72973633 382.74169922 C53.82640641 383.84618493 50.91393197 384.92381617 48 386 C46.91299805 386.40831055 45.82599609 386.81662109 44.70605469 387.23730469 C-13.71023004 409.12471492 -13.71023004 409.12471492 -38.0625 400.44921875 C-46.93959425 396.06969486 -52.75708225 388.76691207 -57 380 C-57.37769531 379.22785156 -57.75539063 378.45570313 -58.14453125 377.66015625 C-62.07950525 368.33117294 -62.79493796 357.96952826 -64 348 C-64.96486328 349.10794922 -64.96486328 349.10794922 -65.94921875 350.23828125 C-76.85431844 362.56489468 -89.01695557 372.35156827 -103 381 C-103.62745117 381.38929688 -104.25490234 381.77859375 -104.90136719 382.1796875 C-118.90570181 390.7446782 -133.90014865 396.69271175 -149.625 401.3125 C-150.784552 401.65800903 -150.784552 401.65800903 -151.9675293 402.01049805 C-167.01789943 406.21042212 -181.99412722 407.55230106 -197.5625 407.4375 C-198.4303009 407.43479095 -199.29810181 407.43208191 -200.19219971 407.42929077 C-214.75058881 407.36068998 -228.77446644 406.27887772 -243 403 C-243.8146875 402.81808105 -244.629375 402.63616211 -245.46875 402.44873047 C-291.0968312 391.95164518 -331.28697032 361.92583599 -356.1875 322.625 C-357.48111735 320.42993562 -358.75015673 318.22028045 -360 316 C-360.38752441 315.31776367 -360.77504883 314.63552734 -361.17431641 313.93261719 C-391.39897466 260.27588873 -396.75871301 194.51749859 -380.31640625 135.54833984 C-365.06951264 83.74551133 -330.34659667 39.95280876 -283.09130859 13.94970703 C-241.35528338 -8.60830203 -190.57417848 -14.50281332 -145 -1 C-115.17108227 8.4055146 -90.01608072 23.7501202 -68 46 C-67.95101563 44.68386719 -67.90203125 43.36773437 -67.8515625 42.01171875 C-66.58216775 10.85222994 -66.58216775 10.85222994 -55.75 0.625 C-39.23533142 -12.91429853 -17.02350163 -11.69989776 0 0 Z M-278 101 C-296.88539703 123.1354421 -308.44903888 151.17940856 -312 180 C-312.11085938 180.89976562 -312.22171875 181.79953125 -312.3359375 182.7265625 C-316.23452014 220.97481924 -308.04008571 262.99123784 -283.75 293.6875 C-282.19475482 295.48305216 -280.60913541 297.25257951 -279 299 C-278.52046875 299.52190918 -278.0409375 300.04381836 -277.546875 300.58154297 C-258.73501847 320.82447823 -233.53469187 334.38315167 -205.64355469 336.22119141 C-169.55265679 337.41946225 -138.44718061 328.35984626 -111.59375 303.4609375 C-110.7378125 302.64882813 -109.881875 301.83671875 -109 301 C-107.56140625 299.65808594 -107.56140625 299.65808594 -106.09375 298.2890625 C-85.89226297 279.06950128 -72.71271876 253.60454674 -65 227 C-64.81381104 226.37254883 -64.62762207 225.74509766 -64.43579102 225.09863281 C-62.50012176 217.71656413 -62.55810316 210.21273417 -62.5625 202.625 C-62.56189575 201.55770157 -62.56189575 201.55770157 -62.5612793 200.46884155 C-62.59984885 188.63014887 -63.92693425 178.14974651 -68 167 C-68.28407715 166.17032715 -68.5681543 165.3406543 -68.86083984 164.48583984 C-75.26787128 145.77869712 -83.88448994 128.64676178 -96 113 C-96.72832031 112.04867187 -97.45664063 111.09734375 -98.20703125 110.1171875 C-117.54640826 85.65548901 -144.91490528 65.96212956 -176.56005859 62.21533203 C-215.94799729 58.73923018 -251.43656795 71.3192065 -278 101 Z " fill="#000000" transform="translate(1917,117)"/>
<path d="M0 0 C42.62405625 -0.98313206 90.65508712 4.49749089 123.67871094 34.06201172 C124.62810547 34.88765625 124.62810547 34.88765625 125.59667969 35.72998047 C141.08107016 50.08050253 149.83211702 71.90143372 150.77246094 92.70654297 C150.51412616 101.95277506 148.06670692 109.34009777 141.67871094 116.06201172 C141.09089844 116.68978516 140.50308594 117.31755859 139.89746094 117.96435547 C132.52645142 125.10879707 122.85855265 128.17851921 112.67871094 128.06201172 C100.49694884 127.2751851 90.87148409 124.37817274 82.42871094 115.28857422 C78.15785019 109.85466657 75.84877779 104.12613348 74.30371094 97.43701172 C72.14603191 88.93815378 66.37003109 83.93896069 59.10449219 79.43310547 C43.03362479 70.34957172 26.10684312 67.87102905 7.85498047 67.82177734 C5.71118046 67.81215742 3.56837731 67.78110017 1.42480469 67.74951172 C-20.1981576 67.58232427 -42.44321184 72.72061929 -58.63378906 87.87451172 C-67.91431663 97.78261594 -72.03990739 109.38105655 -71.59863281 122.93701172 C-70.12105165 139.58581352 -63.51198877 152.79150765 -52.32128906 165.06201172 C-51.43570313 166.06941406 -51.43570313 166.06941406 -50.53222656 167.09716797 C-31.75519972 187.23904478 -4.37068123 198.7478883 19.67871094 211.06201172 C58.60318376 230.99586051 96.66280321 251.8490476 128.67871094 282.06201172 C129.90460938 283.20863281 129.90460938 283.20863281 131.15527344 284.37841797 C149.95186972 302.50578559 164.37343051 326.66574333 170.67871094 352.06201172 C171.12730469 353.86798828 171.12730469 353.86798828 171.58496094 355.71044922 C178.88833154 389.23694578 173.91369188 427.8588765 155.67871094 457.06201172 C130.97804866 493.51860418 92.33636936 512.79560436 49.91308594 521.02685547 C-7.35036347 531.22395894 -74.27388126 524.42625539 -123.11425781 490.52294922 C-126.30848678 488.17974253 -129.32686484 485.65611185 -132.32128906 483.06201172 C-132.84013672 482.61857422 -133.35898438 482.17513672 -133.89355469 481.71826172 C-154.7137691 463.82152064 -169.05043329 439.0541668 -171.23144531 411.33935547 C-171.97774282 392.42233601 -170.96778622 369.60498236 -158.72753906 354.03466797 C-152.03350162 346.83857772 -143.23667374 343.1629663 -133.43066406 342.72607422 C-120.16973857 342.50112526 -109.78209099 343.28846484 -99.26269531 352.15185547 C-93.52985039 357.7924212 -90.86407258 364.06363577 -90.32128906 372.06201172 C-90.3520503 378.72748689 -90.69878191 385.49420951 -91.84472656 392.06201172 C-93.92243958 405.14138549 -92.77069334 416.19851479 -84.94628906 427.06201172 C-67.21787409 447.93631918 -37.11017353 455.38513204 -11.00585938 457.85546875 C19.3468825 460.19071972 54.25785542 456.29823301 78.17480469 435.93701172 C86.77992985 427.81075524 92.31791568 418.36650485 95.67871094 407.06201172 C95.89269531 406.34787109 96.10667969 405.63373047 96.32714844 404.89794922 C101.19832585 386.04861055 98.4140222 367.75689495 88.92871094 350.99951172 C64.6366601 312.26856331 18.82426665 293.83920747 -20.640625 274.73736572 C-29.9050761 270.2521987 -39.13030625 265.69584991 -48.32128906 261.06201172 C-49.22983643 260.6052002 -50.13838379 260.14838867 -51.07446289 259.67773438 C-62.64096244 253.82710577 -73.61822284 247.37429148 -84.32128906 240.06201172 C-85.31515625 239.38525391 -86.30902344 238.70849609 -87.33300781 238.01123047 C-117.28593838 216.8911349 -138.69576039 187.56600266 -145.13378906 151.06201172 C-150.42577145 118.73281023 -148.18704571 85.21372104 -129.00488281 57.65185547 C-105.90884035 25.88247701 -70.2056806 9.52582735 -32.22241211 3.2746582 C-21.48216577 1.61632284 -10.86771791 0.29032397 0 0 Z " fill="#000000" transform="translate(172.3212890625,-0.06201171875)"/>
</svg>
